<svg width="26" height="25" viewBox="0 0 26 25" fill="none" xmlns="http://www.w3.org/2000/svg">
<g clip-path="url(#clip0_1743_8)">
<path d="M24.9776 16.2662C25.7543 13.8339 25.1152 11.073 24.4361 9.15999C24.4316 9.08598 24.4088 9.01424 24.3695 8.95138C24.1387 8.32997 23.9256 7.81953 23.7436 7.45112C24.0786 7.31774 24.2996 6.99494 24.3029 6.63442V2.93704C24.3029 2.44674 23.9055 2.04932 23.4152 2.04932H12.5095C12.2644 2.04887 12.0653 2.24722 12.0648 2.4924C12.0648 2.50156 12.0651 2.51071 12.0656 2.51981C12.2165 5.18299 12.0212 6.98951 11.4575 8.26339C11.4463 8.27604 11.4359 8.28941 11.4265 8.30334C11.4248 8.32548 11.4248 8.34778 11.4265 8.36992C11.2113 8.83364 10.9203 9.25814 10.5654 9.62605L10.5254 9.65268C10.5254 9.65268 10.5254 9.65268 10.5254 9.68375C10.005 10.18 9.40488 10.5852 8.74996 10.8822C7.6089 11.3885 6.43788 11.8243 5.24345 12.1871L5.01708 12.2626C0.866963 13.6386 0.325451 16.1331 0.334328 17.3848C0.333219 17.4025 0.333219 17.4203 0.334328 17.438V20.6072C0.334994 20.7614 0.415611 20.9043 0.547382 20.9845C1.56449 21.6033 2.66239 22.0783 3.80977 22.396C4.04574 22.4623 4.29086 22.3248 4.35722 22.0888C4.3697 22.0444 4.3752 21.9982 4.37348 21.9521V21.85H5.02596V22.2939C5.02313 22.5138 5.18175 22.7026 5.3988 22.7377C5.78496 22.7999 6.17112 22.8487 6.5484 22.8798C6.67202 22.8902 6.79436 22.8483 6.88574 22.7644C6.97706 22.6797 7.02861 22.5605 7.02778 22.4359V21.8767H7.68025V22.5069C7.68025 22.7521 7.87899 22.9508 8.12412 22.9508C8.49696 22.9508 8.86981 22.9508 9.26928 22.8975C9.50048 22.879 9.67836 22.6856 9.67764 22.4537V21.8767H10.3301V22.2673C10.327 22.5124 10.5231 22.7137 10.7682 22.7168C10.7939 22.7172 10.8196 22.7153 10.845 22.7111C11.6598 22.5863 12.4629 22.3949 13.2463 22.1385L13.3173 22.1075C16.4243 20.332 18.3951 21.7923 18.475 21.8545C18.5524 21.9146 18.6477 21.9473 18.7457 21.9477H19.2961C19.5413 21.9477 19.74 21.7489 19.74 21.5038V20.7537H20.3747V21.4949C20.3747 21.7401 20.5735 21.9388 20.8186 21.9388H22.2478C22.4929 21.9388 22.6917 21.7401 22.6917 21.4949V20.7537H23.3486V21.4949C23.3486 21.7401 23.5473 21.9388 23.7925 21.9388H24.8888C25.1339 21.9388 25.3327 21.7401 25.3327 21.4949V16.7101C25.337 16.4958 25.1876 16.3091 24.9776 16.2662ZM14.4447 2.94592H23.393V6.6211H14.4447V2.94592ZM8.86537 11.7965L8.86981 11.8232C9.23366 12.1186 9.56944 12.447 9.87293 12.8041C9.79243 12.938 9.75093 13.0917 9.75309 13.248C9.75004 13.7162 10.1272 14.0982 10.5953 14.1012C11.0635 14.1043 11.4455 13.7272 11.4486 13.259C11.4515 12.8179 11.1156 12.4483 10.6763 12.4091C10.3956 12.0263 10.0757 11.6737 9.72202 11.3571C10.1187 11.1314 10.4918 10.8667 10.8361 10.567C11.2666 10.9709 11.6671 11.4056 12.0345 11.8676C11.8801 12.3096 12.1133 12.7931 12.5553 12.9475C12.9973 13.1019 13.4808 12.8688 13.6352 12.4268C13.7896 11.9848 13.5565 11.5013 13.1145 11.3468C13.0228 11.3148 12.9263 11.2987 12.8291 11.2994H12.7225C12.3332 10.8093 11.909 10.3479 11.4531 9.919C11.6646 9.65851 11.8518 9.37921 12.0124 9.08454C12.6995 9.44223 13.3636 9.84249 14.0009 10.283C13.9965 10.7561 14.3765 11.1431 14.8496 11.1475C15.3227 11.1519 15.7097 10.7719 15.7141 10.2988C15.7185 9.82568 15.3385 9.43863 14.8654 9.43425C14.7303 9.43297 14.5967 9.46371 14.4758 9.52396C13.8051 9.06989 13.1069 8.65782 12.3852 8.29002C12.869 7.00282 13.0776 5.29395 12.98 2.96367H13.5614V6.63885C13.5614 7.12916 13.9589 7.52658 14.4492 7.52658H22.7671C22.8825 7.76183 23.0778 8.17018 23.2909 8.70282H23.1089C20.4125 8.72229 18.2424 10.924 18.2618 13.6204C18.2729 15.1527 19.0026 16.5909 20.2327 17.5046C16.6418 18.45 11.24 19.573 6.69488 19.2801C7.53378 15.9289 6.53065 13.8649 5.87817 12.9595C6.89423 12.6262 7.89142 12.238 8.86537 11.7965ZM4.98601 13.2125C5.46538 13.7762 6.71707 15.6715 5.79828 19.1558C4.19893 19.0301 2.64558 18.5607 1.24425 17.7798C1.22832 17.6784 1.21795 17.5761 1.21318 17.4735V17.4425C1.17767 16.497 1.53276 14.4508 4.98601 13.2125ZM24.2363 21.0511V20.3098C24.2363 20.0647 24.0376 19.866 23.7925 19.866H22.2523C22.0071 19.866 21.8084 20.0647 21.8084 20.3098V21.0511H21.2624V20.3098C21.2624 20.0647 21.0637 19.866 20.8186 19.866H19.2873C19.0421 19.866 18.8434 20.0647 18.8434 20.3098V21.0333C18.2397 20.656 16.0337 19.5597 12.9045 21.3085C12.3478 21.4923 11.78 21.6405 11.2045 21.7524V21.4461C11.2045 21.201 11.0058 21.0022 10.7607 21.0022H9.22933C8.98421 21.0022 8.78547 21.201 8.78547 21.4461V22.0542H8.5591V21.4328C8.5591 21.1877 8.36036 20.9889 8.11524 20.9889H6.57504C6.32991 20.9889 6.13117 21.1877 6.13117 21.4328V21.961L5.9048 21.9299V21.4328C5.9048 21.1877 5.70606 20.9889 5.46094 20.9889H3.92074C3.69498 20.9873 3.50395 21.1554 3.47688 21.3795C2.68907 21.1201 1.93046 20.7795 1.21318 20.3631V18.7741C3.14842 19.7994 5.6518 20.1855 8.31498 20.1855C15.3901 20.1855 23.4862 17.478 24.4405 17.154L24.4449 21.0511H24.2363ZM24.0188 16.3683C23.6416 16.4926 22.7139 16.8122 21.4311 17.154C19.4452 16.1928 18.6145 13.8038 19.5756 11.8179C20.2331 10.4595 21.5999 9.58749 23.1089 9.56391C23.2839 9.56147 23.4588 9.57034 23.6327 9.59054L23.6371 9.60386C24.2896 11.4858 24.8755 14.1712 24.0188 16.3683Z" fill="#2D383F"/>
<path d="M16.1536 3.48303C15.4402 3.48303 14.8619 4.06132 14.8619 4.77466C14.8644 5.48701 15.4412 6.06386 16.1536 6.0663C16.8669 6.0663 17.4452 5.48801 17.4452 4.77466C17.4452 4.06132 16.867 3.48303 16.1536 3.48303ZM16.1536 5.17858C15.9305 5.17858 15.7496 4.99776 15.7496 4.77466C15.7496 4.55157 15.9305 4.37075 16.1536 4.37075C16.3767 4.37075 16.5575 4.55157 16.5575 4.77466C16.5575 4.99776 16.3767 5.17858 16.1536 5.17858Z" fill="#2D383F"/>
</g>
<defs>
<clipPath id="clip0_1743_8">
<rect width="25" height="25" fill="white" transform="translate(0.333496)"/>
</clipPath>
</defs>
</svg>
