<svg xmlns="http://www.w3.org/2000/svg" xmlns:xlink="http://www.w3.org/1999/xlink"><defs>
<clipPath id="clip0_1743_8">
<rect width="25" height="25" fill="white" transform="translate(0.333496)"/>
</clipPath>

<clipPath id="clip0_1743_422">
<rect width="25" height="25" fill="white"/>
</clipPath>

<clipPath id="clip0_1743_1042">
<rect width="25" height="25" fill="white"/>
</clipPath>

<clipPath id="clip0_2309_160">
<rect width="24" height="24" fill="white"/>
</clipPath>

<clipPath id="clip0_1743_888">
<rect width="25" height="25" fill="white" transform="translate(0.666504)"/>
</clipPath>
</defs><symbol id="big-arrow" viewBox="0 0 14 9"><g fill="currentColor">
<path d="M0.646446 4.85355C0.451184 4.65829 0.451184 4.34171 0.646446 4.14645L3.82843 0.964466C4.02369 0.769204 4.34027 0.769204 4.53553 0.964466C4.7308 1.15973 4.7308 1.47631 4.53553 1.67157L1.70711 4.5L4.53553 7.32843C4.7308 7.52369 4.7308 7.84027 4.53553 8.03553C4.34027 8.2308 4.02369 8.2308 3.82843 8.03553L0.646446 4.85355ZM14 5H1V4H14V5Z"/>
</g></symbol><symbol id="boots" viewBox="0 0 26 25"><g fill="none">
<g clip-path="url(#clip0_1743_8)">
<path d="M24.9776 16.2662C25.7543 13.8339 25.1152 11.073 24.4361 9.15999C24.4316 9.08598 24.4088 9.01424 24.3695 8.95138C24.1387 8.32997 23.9256 7.81953 23.7436 7.45112C24.0786 7.31774 24.2996 6.99494 24.3029 6.63442V2.93704C24.3029 2.44674 23.9055 2.04932 23.4152 2.04932H12.5095C12.2644 2.04887 12.0653 2.24722 12.0648 2.4924C12.0648 2.50156 12.0651 2.51071 12.0656 2.51981C12.2165 5.18299 12.0212 6.98951 11.4575 8.26339C11.4463 8.27604 11.4359 8.28941 11.4265 8.30334C11.4248 8.32548 11.4248 8.34778 11.4265 8.36992C11.2113 8.83364 10.9203 9.25814 10.5654 9.62605L10.5254 9.65268C10.5254 9.65268 10.5254 9.65268 10.5254 9.68375C10.005 10.18 9.40488 10.5852 8.74996 10.8822C7.6089 11.3885 6.43788 11.8243 5.24345 12.1871L5.01708 12.2626C0.866963 13.6386 0.325451 16.1331 0.334328 17.3848C0.333219 17.4025 0.333219 17.4203 0.334328 17.438V20.6072C0.334994 20.7614 0.415611 20.9043 0.547382 20.9845C1.56449 21.6033 2.66239 22.0783 3.80977 22.396C4.04574 22.4623 4.29086 22.3248 4.35722 22.0888C4.3697 22.0444 4.3752 21.9982 4.37348 21.9521V21.85H5.02596V22.2939C5.02313 22.5138 5.18175 22.7026 5.3988 22.7377C5.78496 22.7999 6.17112 22.8487 6.5484 22.8798C6.67202 22.8902 6.79436 22.8483 6.88574 22.7644C6.97706 22.6797 7.02861 22.5605 7.02778 22.4359V21.8767H7.68025V22.5069C7.68025 22.7521 7.87899 22.9508 8.12412 22.9508C8.49696 22.9508 8.86981 22.9508 9.26928 22.8975C9.50048 22.879 9.67836 22.6856 9.67764 22.4537V21.8767H10.3301V22.2673C10.327 22.5124 10.5231 22.7137 10.7682 22.7168C10.7939 22.7172 10.8196 22.7153 10.845 22.7111C11.6598 22.5863 12.4629 22.3949 13.2463 22.1385L13.3173 22.1075C16.4243 20.332 18.3951 21.7923 18.475 21.8545C18.5524 21.9146 18.6477 21.9473 18.7457 21.9477H19.2961C19.5413 21.9477 19.74 21.7489 19.74 21.5038V20.7537H20.3747V21.4949C20.3747 21.7401 20.5735 21.9388 20.8186 21.9388H22.2478C22.4929 21.9388 22.6917 21.7401 22.6917 21.4949V20.7537H23.3486V21.4949C23.3486 21.7401 23.5473 21.9388 23.7925 21.9388H24.8888C25.1339 21.9388 25.3327 21.7401 25.3327 21.4949V16.7101C25.337 16.4958 25.1876 16.3091 24.9776 16.2662ZM14.4447 2.94592H23.393V6.6211H14.4447V2.94592ZM8.86537 11.7965L8.86981 11.8232C9.23366 12.1186 9.56944 12.447 9.87293 12.8041C9.79243 12.938 9.75093 13.0917 9.75309 13.248C9.75004 13.7162 10.1272 14.0982 10.5953 14.1012C11.0635 14.1043 11.4455 13.7272 11.4486 13.259C11.4515 12.8179 11.1156 12.4483 10.6763 12.4091C10.3956 12.0263 10.0757 11.6737 9.72202 11.3571C10.1187 11.1314 10.4918 10.8667 10.8361 10.567C11.2666 10.9709 11.6671 11.4056 12.0345 11.8676C11.8801 12.3096 12.1133 12.7931 12.5553 12.9475C12.9973 13.1019 13.4808 12.8688 13.6352 12.4268C13.7896 11.9848 13.5565 11.5013 13.1145 11.3468C13.0228 11.3148 12.9263 11.2987 12.8291 11.2994H12.7225C12.3332 10.8093 11.909 10.3479 11.4531 9.919C11.6646 9.65851 11.8518 9.37921 12.0124 9.08454C12.6995 9.44223 13.3636 9.84249 14.0009 10.283C13.9965 10.7561 14.3765 11.1431 14.8496 11.1475C15.3227 11.1519 15.7097 10.7719 15.7141 10.2988C15.7185 9.82568 15.3385 9.43863 14.8654 9.43425C14.7303 9.43297 14.5967 9.46371 14.4758 9.52396C13.8051 9.06989 13.1069 8.65782 12.3852 8.29002C12.869 7.00282 13.0776 5.29395 12.98 2.96367H13.5614V6.63885C13.5614 7.12916 13.9589 7.52658 14.4492 7.52658H22.7671C22.8825 7.76183 23.0778 8.17018 23.2909 8.70282H23.1089C20.4125 8.72229 18.2424 10.924 18.2618 13.6204C18.2729 15.1527 19.0026 16.5909 20.2327 17.5046C16.6418 18.45 11.24 19.573 6.69488 19.2801C7.53378 15.9289 6.53065 13.8649 5.87817 12.9595C6.89423 12.6262 7.89142 12.238 8.86537 11.7965ZM4.98601 13.2125C5.46538 13.7762 6.71707 15.6715 5.79828 19.1558C4.19893 19.0301 2.64558 18.5607 1.24425 17.7798C1.22832 17.6784 1.21795 17.5761 1.21318 17.4735V17.4425C1.17767 16.497 1.53276 14.4508 4.98601 13.2125ZM24.2363 21.0511V20.3098C24.2363 20.0647 24.0376 19.866 23.7925 19.866H22.2523C22.0071 19.866 21.8084 20.0647 21.8084 20.3098V21.0511H21.2624V20.3098C21.2624 20.0647 21.0637 19.866 20.8186 19.866H19.2873C19.0421 19.866 18.8434 20.0647 18.8434 20.3098V21.0333C18.2397 20.656 16.0337 19.5597 12.9045 21.3085C12.3478 21.4923 11.78 21.6405 11.2045 21.7524V21.4461C11.2045 21.201 11.0058 21.0022 10.7607 21.0022H9.22933C8.98421 21.0022 8.78547 21.201 8.78547 21.4461V22.0542H8.5591V21.4328C8.5591 21.1877 8.36036 20.9889 8.11524 20.9889H6.57504C6.32991 20.9889 6.13117 21.1877 6.13117 21.4328V21.961L5.9048 21.9299V21.4328C5.9048 21.1877 5.70606 20.9889 5.46094 20.9889H3.92074C3.69498 20.9873 3.50395 21.1554 3.47688 21.3795C2.68907 21.1201 1.93046 20.7795 1.21318 20.3631V18.7741C3.14842 19.7994 5.6518 20.1855 8.31498 20.1855C15.3901 20.1855 23.4862 17.478 24.4405 17.154L24.4449 21.0511H24.2363ZM24.0188 16.3683C23.6416 16.4926 22.7139 16.8122 21.4311 17.154C19.4452 16.1928 18.6145 13.8038 19.5756 11.8179C20.2331 10.4595 21.5999 9.58749 23.1089 9.56391C23.2839 9.56147 23.4588 9.57034 23.6327 9.59054L23.6371 9.60386C24.2896 11.4858 24.8755 14.1712 24.0188 16.3683Z" fill="#2D383F"/>
<path d="M16.1536 3.48303C15.4402 3.48303 14.8619 4.06132 14.8619 4.77466C14.8644 5.48701 15.4412 6.06386 16.1536 6.0663C16.8669 6.0663 17.4452 5.48801 17.4452 4.77466C17.4452 4.06132 16.867 3.48303 16.1536 3.48303ZM16.1536 5.17858C15.9305 5.17858 15.7496 4.99776 15.7496 4.77466C15.7496 4.55157 15.9305 4.37075 16.1536 4.37075C16.3767 4.37075 16.5575 4.55157 16.5575 4.77466C16.5575 4.99776 16.3767 5.17858 16.1536 5.17858Z" fill="#2D383F"/>
</g>

</g></symbol><symbol id="eco-adv" viewBox="0 0 24 24"><g fill="none">
<path d="M11.662 17.7206C10.9227 14.5975 8.74849 11.9689 5.75492 10.579C4.28063 9.89447 2.68662 9.54707 1.09082 9.53679C1.18415 11.7498 2.00095 13.9041 3.46387 15.6727C5.5203 18.1589 8.63129 19.6146 11.9269 19.6358C11.8999 18.9962 11.8123 18.3552 11.662 17.7206ZM11.662 17.7206C11.0551 15.1567 9.4811 12.9262 7.28073 11.4406C7.31788 11.2191 7.36249 10.998 7.41465 10.7777C8.04019 8.13531 9.69285 5.84696 11.9999 4.36328C14.3069 5.84696 15.9595 8.13532 16.5851 10.7777C16.6372 10.998 16.6819 11.2191 16.719 11.4406C14.5186 12.9262 12.9447 15.1567 12.3378 17.7206M11.662 17.7206C11.8122 18.355 11.8998 18.9958 11.9268 19.6352C11.9724 19.6357 12.0181 19.636 12.0638 19.636C12.9876 19.636 13.8975 19.5232 14.7742 19.3066C14.7792 19.3 14.7841 19.2934 14.7891 19.2868C13.9111 19.5105 12.9994 19.6298 12.0729 19.6358M12.3378 17.7206C13.0771 14.5975 15.2513 11.9689 18.2449 10.579C19.7192 9.89447 21.3132 9.54707 22.909 9.53679C22.8157 11.7498 21.9989 13.9041 20.536 15.6727C18.4795 18.1589 15.3685 19.6146 12.0729 19.6358M12.3378 17.7206C12.1876 18.3552 12.0999 18.9962 12.0729 19.6358" stroke="#0266C1" stroke-linecap="round" stroke-linejoin="round"/>
</g></symbol><symbol id="equip-adv" viewBox="0 0 24 24"><g fill="none">
<path d="M22.5984 15.538C23.2763 13.2529 22.7185 10.6592 22.1258 8.86192C22.1219 8.79239 22.102 8.72499 22.0677 8.66594C21.8663 8.08214 21.6803 7.60259 21.5215 7.25649C21.8139 7.13118 22.0067 6.82792 22.0096 6.48921V3.01563C22.0096 2.55501 21.6627 2.18164 21.2348 2.18164H11.7171C11.5032 2.18122 11.3295 2.36757 11.3291 2.59791C11.3291 2.60651 11.3293 2.61511 11.3298 2.62366C11.4615 5.12564 11.291 6.82281 10.7991 8.01959C10.7893 8.03148 10.7802 8.04404 10.7719 8.05712C10.7705 8.07792 10.7705 8.09887 10.7719 8.11967C10.5842 8.55533 10.3302 8.95413 10.0205 9.29977L9.98559 9.32479C9.98559 9.32479 9.98559 9.32479 9.98559 9.35398C9.53144 9.82024 9.00767 10.2008 8.4361 10.4799C7.44027 10.9555 6.41829 11.3649 5.37587 11.7058L5.17831 11.7767C1.55639 13.0694 1.0838 15.4129 1.09155 16.5889C1.09058 16.6055 1.09058 16.6222 1.09155 16.6389V19.6163C1.09213 19.7612 1.16248 19.8953 1.27748 19.9707C2.16515 20.5521 3.12331 20.9983 4.12466 21.2968C4.3306 21.3591 4.54452 21.2299 4.60244 21.0082C4.61333 20.9664 4.61812 20.9231 4.61662 20.8798V20.7839H5.18606V21.2008C5.18359 21.4074 5.32203 21.5848 5.51145 21.6178C5.84846 21.6762 6.18548 21.7221 6.51474 21.7513C6.62263 21.761 6.72939 21.7217 6.80914 21.6429C6.88885 21.5633 6.93383 21.4513 6.9331 21.3343V20.8089H7.50254V21.401C7.50254 21.6313 7.67598 21.818 7.88991 21.818C8.2153 21.818 8.54069 21.818 8.88933 21.768C9.0911 21.7506 9.24634 21.5688 9.24571 21.351V20.8089H9.81514V21.1758C9.81238 21.4061 9.98355 21.5952 10.1975 21.5982C10.2199 21.5985 10.2423 21.5967 10.2645 21.5928C10.9756 21.4756 11.6765 21.2957 12.3602 21.0549L12.4222 21.0257C15.1337 19.3577 16.8537 20.7296 16.9234 20.788C16.991 20.8445 17.0741 20.8753 17.1597 20.8756H17.64C17.854 20.8756 18.0274 20.6889 18.0274 20.4586V19.7539H18.5814V20.4503C18.5814 20.6805 18.7548 20.8673 18.9687 20.8673H20.2161C20.43 20.8673 20.6034 20.6805 20.6034 20.4503V19.7539H21.1767V20.4503C21.1767 20.6805 21.3502 20.8673 21.5641 20.8673H22.5209C22.7348 20.8673 22.9083 20.6805 22.9083 20.4503V15.955C22.9121 15.7537 22.7817 15.5783 22.5984 15.538ZM13.4061 3.02397H21.2155V6.4767H13.4061V3.02397ZM8.53682 11.3389L8.54069 11.3639C8.85824 11.6414 9.15129 11.9499 9.41615 12.2855C9.34589 12.4112 9.30967 12.5557 9.31156 12.7025C9.3089 13.1423 9.63802 13.5012 10.0466 13.5041C10.4552 13.507 10.7886 13.1527 10.7913 12.7128C10.7938 12.2984 10.5007 11.9512 10.1173 11.9143C9.87228 11.5547 9.59313 11.2235 9.28445 10.9261C9.63061 10.714 9.95629 10.4653 10.2567 10.1838C10.6324 10.5632 10.982 10.9716 11.3026 11.4056C11.1679 11.8209 11.3714 12.2751 11.7571 12.4202C12.1429 12.5653 12.5648 12.3462 12.6996 11.931C12.8344 11.5157 12.6309 11.0615 12.2452 10.9164C12.1651 10.8863 12.0809 10.8712 11.996 10.8718H11.9031C11.5633 10.4114 11.1931 9.97796 10.7952 9.57499C10.9798 9.33026 11.1432 9.06787 11.2833 8.79104C11.883 9.12708 12.4626 9.50311 13.0187 9.91693C13.0149 10.3614 13.3465 10.725 13.7594 10.7291C14.1723 10.7332 14.5101 10.3762 14.5139 9.93178C14.5177 9.48731 14.1861 9.12369 13.7732 9.11958C13.6553 9.11838 13.5387 9.14725 13.4332 9.20386C12.8478 8.77727 12.2385 8.39015 11.6087 8.04461C12.0309 6.83532 12.213 5.22989 12.1277 3.04065H12.6352V6.49338C12.6352 6.95401 12.982 7.32738 13.4099 7.32738H20.6693C20.77 7.54839 20.9404 7.93202 21.1264 8.43242H20.9676C18.6143 8.45071 16.7204 10.5191 16.7374 13.0524C16.747 14.4919 17.3839 15.843 18.4574 16.7015C15.3236 17.5897 10.6093 18.6447 6.64257 18.3694C7.37471 15.2211 6.49925 13.2821 5.92981 12.4314C6.81655 12.1183 7.68683 11.7536 8.53682 11.3389ZM5.1512 12.6691C5.56956 13.1987 6.66194 14.9793 5.86009 18.2527C4.46429 18.1346 3.10864 17.6936 1.88566 16.96C1.87176 16.8647 1.86271 16.7686 1.85854 16.6723V16.6431C1.82755 15.7549 2.13745 13.8325 5.1512 12.6691ZM21.9515 20.0333V19.3369C21.9515 19.1066 21.778 18.9199 21.5641 18.9199H20.2199C20.006 18.9199 19.8326 19.1066 19.8326 19.3369V20.0333H19.3561V19.3369C19.3561 19.1066 19.1826 18.9199 18.9687 18.9199H17.6323C17.4184 18.9199 17.2449 19.1066 17.2449 19.3369V20.0166C16.7181 19.6621 14.7929 18.6322 12.0619 20.2751C11.576 20.4478 11.0805 20.587 10.5783 20.6921V20.4044C10.5783 20.1741 10.4048 19.9874 10.1909 19.9874H8.85446C8.64054 19.9874 8.46709 20.1741 8.46709 20.4044V20.9757H8.26953V20.3919C8.26953 20.1616 8.09609 19.9749 7.88216 19.9749H6.53798C6.32406 19.9749 6.15061 20.1616 6.15061 20.3919V20.8881L5.95305 20.8589V20.3919C5.95305 20.1616 5.77961 19.9749 5.56568 19.9749H4.22151C4.02448 19.9734 3.85776 20.1313 3.83413 20.3418C3.1466 20.0982 2.48453 19.7781 1.85854 19.3869V17.8941C3.54748 18.8573 5.73225 19.2201 8.05648 19.2201C14.2312 19.2201 21.2968 16.6764 22.1297 16.372L22.1335 20.0333H21.9515ZM21.7617 15.6339C21.4324 15.7507 20.6228 16.0509 19.5033 16.372C17.7701 15.4691 17.0451 13.2246 17.8839 11.359C18.4577 10.0827 19.6506 9.26354 20.9676 9.24139C21.1203 9.2391 21.273 9.24744 21.4247 9.26641L21.4285 9.27892C21.998 11.047 22.5093 13.5698 21.7617 15.6339Z" fill="#0266C1"/>
<path d="M14.8978 3.52858C14.2752 3.52858 13.7705 4.07187 13.7705 4.74204C13.7726 5.41126 14.2761 5.9532 14.8978 5.9555C15.5203 5.9555 16.025 5.4122 16.025 4.74204C16.025 4.07187 15.5204 3.52858 14.8978 3.52858ZM14.8978 5.1215C14.7031 5.1215 14.5453 4.95163 14.5453 4.74204C14.5453 4.53244 14.7031 4.36257 14.8978 4.36257C15.0925 4.36257 15.2503 4.53244 15.2503 4.74204C15.2503 4.95163 15.0925 5.1215 14.8978 5.1215Z" fill="#0266C1"/>
</g></symbol><symbol id="icon-ok" viewBox="0 0 9 16"><g fill="none">
<path d="M4.5 2.42035C5.41587 2.42035 6.1607 3.18736 6.1607 4.1305C6.1607 5.0708 5.41587 5.83781 4.5 5.83781C3.58413 5.83781 2.8393 5.0708 2.8393 4.1305C2.8393 3.18736 3.58413 2.42035 4.5 2.42035ZM4.5 8.25816C6.71243 8.25816 8.51106 6.40597 8.51106 4.1305C8.51106 1.85219 6.71243 0 4.5 0C2.28757 0 0.491701 1.85219 0.491701 4.1305C0.491701 6.40597 2.28757 8.25816 4.5 8.25816ZM6.12208 11.6273C6.93863 11.4342 7.72485 11.1018 8.45037 10.6331C8.99934 10.278 9.16486 9.53083 8.82003 8.96551C8.47244 8.39735 7.74967 8.22691 7.19795 8.58485C5.55656 9.6473 3.44344 9.6473 1.79929 8.58485C1.25033 8.22691 0.524805 8.39735 0.179975 8.96551C-0.164855 9.53083 0.000663014 10.278 0.549632 10.6331C1.27515 11.1018 2.06136 11.4342 2.87792 11.6273L0.63515 13.934C0.177216 14.4056 0.177216 15.1726 0.63515 15.6442C0.866875 15.88 1.16481 15.9993 1.4655 15.9993C1.76619 15.9993 2.06688 15.88 2.29861 15.6442L4.5 13.3772L6.70415 15.6442C7.16208 16.1186 7.90416 16.1186 8.36485 15.6442C8.82278 15.1726 8.82278 14.4056 8.36485 13.934L6.12208 11.6273Z" fill="currentColor"/>
</g></symbol><symbol id="icon-play" viewBox="0 0 12 22"><g fill="none">
<path d="M12 11L0 0V22L12 11Z" fill="white"/>
</g></symbol><symbol id="icon-reddit" viewBox="0 0 14 15"><g fill="none">
<path d="M8.36171 0C7.91277 0 7.49149 0.244007 7.22128 0.59589C6.95106 0.947774 6.80213 1.37671 6.69362 1.82877C6.52128 2.55565 6.46808 3.36216 6.45532 4.08904C5.19361 4.17894 4.05105 4.57962 3.10211 5.19863C2.717 4.85188 2.25317 4.65925 1.80849 4.66438C1.3021 4.66952 0.821252 4.90325 0.463803 5.38356C-0.219178 6.30051 -0.140455 7.80051 0.651038 8.69178C0.602102 8.96661 0.565931 9.24914 0.565931 9.53425C0.565931 12.5548 3.44679 15 7 15C10.5532 15 13.4341 12.5522 13.4341 9.53425C13.4341 9.24914 13.3979 8.96661 13.349 8.69178C14.1405 7.80051 14.2192 6.30051 13.5362 5.38356C13.1788 4.90325 12.6979 4.66952 12.1915 4.66438C11.7468 4.65925 11.283 4.85188 10.8979 5.19863C9.9532 4.58219 8.81703 4.18151 7.5617 4.08904C7.57873 3.41866 7.62341 2.7226 7.74894 2.19863C7.82766 1.86986 7.92128 1.63099 8.02128 1.5C8.12128 1.36901 8.19362 1.31507 8.36171 1.31507C8.72554 1.31507 8.77235 1.44092 8.9915 1.74658C9.10214 1.90068 9.2298 2.09332 9.43405 2.28082C9.63831 2.46832 9.94044 2.63014 10.2681 2.63014V1.31507C10.1766 1.31507 10.1596 1.3125 10.0979 1.25342C10.0362 1.19435 9.95108 1.05822 9.82554 0.883562C9.57448 0.531678 9.08724 0 8.36171 0ZM11.9021 0.123288C11.0553 0.123288 10.3702 0.950343 10.3702 1.9726C10.3702 2.99486 11.0553 3.82192 11.9021 3.82192C12.749 3.82192 13.4341 2.99486 13.4341 1.9726C13.4341 0.950343 12.749 0.123288 11.9021 0.123288ZM11.9021 0.780822C12.4468 0.780822 12.8894 1.31507 12.8894 1.9726C12.8894 2.63014 12.4468 3.16438 11.9021 3.16438C11.3575 3.16438 10.9149 2.63014 10.9149 1.9726C10.9149 1.31507 11.3575 0.780822 11.9021 0.780822ZM7 5.11644C10.0149 5.11644 12.566 7.14298 12.566 9.53425C12.566 11.9281 10.0149 13.9521 7 13.9521C3.98509 13.9521 1.43402 11.9281 1.43402 9.53425C1.43402 7.14298 3.98509 5.11644 7 5.11644ZM1.82551 5.71233C1.97658 5.7149 2.13402 5.75599 2.28509 5.83562C1.73828 6.33647 1.30423 6.91182 1.00849 7.56164C0.80423 7.05308 0.85955 6.41866 1.11061 6.08219C1.29359 5.83562 1.54679 5.70976 1.82551 5.71233ZM12.1745 5.71233C12.4532 5.70976 12.7064 5.83562 12.8894 6.08219C13.1405 6.41866 13.1958 7.05308 12.9915 7.56164C12.6958 6.91182 12.2617 6.33647 11.7149 5.83562C11.866 5.75599 12.0234 5.7149 12.1745 5.71233ZM4.82127 7.35616C4.27658 7.35616 3.83403 7.89041 3.83403 8.54795C3.83403 9.20548 4.27658 9.73973 4.82127 9.73973C5.36595 9.73973 5.80851 9.20548 5.80851 8.54795C5.80851 7.89041 5.36595 7.35616 4.82127 7.35616ZM9.17873 7.35616C8.63405 7.35616 8.19149 7.89041 8.19149 8.54795C8.19149 9.20548 8.63405 9.73973 9.17873 9.73973C9.72342 9.73973 10.166 9.20548 10.166 8.54795C10.166 7.89041 9.72342 7.35616 9.17873 7.35616ZM4.29361 11.4041C4.64042 12.2697 5.71276 13.1096 7 13.1096C8.28724 13.1096 9.37661 12.2697 9.72342 11.4041C9.09363 11.8947 8.10001 12.226 7 12.226C5.9 12.226 4.9234 11.8947 4.29361 11.4041Z" fill="currentColor"/>
</g></symbol><symbol id="icon-vk" viewBox="0 0 16 9"><g fill="none">
<path d="M15.8574 8.02743C15.8144 7.95645 15.5484 7.38659 14.2683 6.21531C12.9282 4.98883 13.1082 5.18799 14.7223 3.06728C15.7054 1.77572 16.0984 0.986988 15.9754 0.649804C15.8584 0.328395 15.1353 0.413184 15.1353 0.413184L12.7312 0.426986C12.7312 0.426986 12.5531 0.403324 12.4201 0.481212C12.2911 0.558114 12.2081 0.735579 12.2081 0.735579C12.2081 0.735579 11.8271 1.7353 11.3191 2.58516C10.248 4.37855 9.81894 4.4732 9.64393 4.36179C9.2369 4.10249 9.33891 3.31869 9.33891 2.76263C9.33891 1.02445 9.60593 0.299803 8.81787 0.112478C8.55585 0.0503654 8.36384 0.00895679 7.69479 0.00205536C6.83672 -0.00681791 6.10967 0.00501311 5.69864 0.203183C5.42462 0.335296 5.21361 0.630086 5.34262 0.646846C5.50163 0.667551 5.86165 0.74248 6.05267 0.998819C6.29969 1.3291 6.29069 2.07248 6.29069 2.07248C6.29069 2.07248 6.4327 4.11827 5.95966 4.37263C5.63464 4.54714 5.1896 4.19122 4.23453 2.56347C3.7455 1.73037 3.37547 0.808537 3.37547 0.808537C3.37547 0.808537 3.30447 0.636987 3.17746 0.545297C3.02345 0.433888 2.80743 0.398395 2.80743 0.398395L0.521262 0.412198C0.521262 0.412198 0.178236 0.422057 0.0522271 0.568959C-0.0597811 0.700086 0.0432264 0.970227 0.0432264 0.970227C0.0432264 0.970227 1.83336 5.09827 3.85951 7.17954C5.71864 9.0873 7.8288 8.96208 7.8288 8.96208H8.78487C8.78487 8.96208 9.07389 8.93054 9.2209 8.77377C9.35691 8.62983 9.35191 8.35969 9.35191 8.35969C9.35191 8.35969 9.33291 7.09475 9.92895 6.90842C10.516 6.72504 11.2701 8.13095 12.0691 8.67222C12.6732 9.08138 13.1322 8.99166 13.1322 8.99166L15.2693 8.96208C15.2693 8.96208 16.3874 8.89406 15.8574 8.02743Z" fill="currentColor"/>
</g></symbol><symbol id="knowledge-adv" viewBox="0 0 24 24"><g fill="none">
<path d="M19.2945 21.818H4.70534M22.909 7.75649L19.7177 18.3324H4.28216L1.09082 7.75649L7.3872 11.579L11.9999 2.18164L16.6126 11.579L22.909 7.75649Z" stroke="#0266C1"/>
</g></symbol><symbol id="logo-desktop" viewBox="0 0 142 42"><g fill="currentColor">
<path d="M15.7314 27.2445L19.4995 23.359L23.7857 27.2445H31.1334L19.4524 16.0044L7.86561 27.2445H15.7314Z"/>
<path d="M26.5178 9.20485L20.9599 14.7555L24.6337 18.4559L26.5178 16.6057L36.8328 26.6894C34.4778 32.8414 28.4489 37.2357 21.3367 37.2357C12.1991 37.2357 4.80428 29.9736 4.80428 21C4.85138 12.0264 12.2462 4.76432 21.3838 4.76432C29.4851 4.76432 36.2676 10.5463 37.6336 18.0859L42.6262 23.2665C42.7204 22.5264 42.7675 21.7401 42.7675 21C42.7675 15.4031 40.5538 10.13 36.5031 6.15198C32.4525 2.17401 27.083 0 21.3838 0C15.6375 0 10.3151 2.17401 6.26441 6.15198C2.21374 10.13 0 15.3568 0 21C0 26.6432 2.21374 31.87 6.26441 35.848C10.3151 39.826 15.6846 42 21.3838 42C27.083 42 32.4525 39.826 36.5031 35.848C38.9995 33.3965 40.7893 30.4824 41.7784 27.2907C41.9668 26.7357 42.1081 26.1344 42.2494 25.5793L37.9162 21.0925L26.5178 9.20485Z"/>
<path d="M60.4115 13.4945H63.5561L61.8408 21.9634H67.1453L66.6371 24.4121H58.1881L60.4115 13.4945Z"/>
<path d="M70.1049 13.4945H73.2495L71.026 24.4121H67.8815L70.1049 13.4945Z"/>
<path d="M78.1389 15.8808L77.6466 18.2826H82.554L82.0617 20.6689H77.1701L76.4078 24.4121H73.2632L75.4867 13.4945H84.1898L83.6975 15.8808H78.1389Z"/>
<path d="M88.2809 15.8808L87.9157 17.7212H92.8549L92.3943 20.0295H87.4392L87.0422 22.0258H92.8707L92.3625 24.4121H83.4529L85.6764 13.4945H94.3795L93.8872 15.8808H88.2809Z"/>
<path d="M98.205 15.9431H94.7904L95.2987 13.4945H105.256L104.748 15.9431H101.35L99.6185 24.4121H96.4739L98.205 15.9431Z"/>
<path d="M110.053 24.6305C108.93 24.6305 107.951 24.4277 107.115 24.0222C106.289 23.6167 105.648 23.05 105.193 22.3222C104.748 21.5943 104.526 20.7625 104.526 19.8267C104.526 18.579 104.817 17.456 105.399 16.4578C105.992 15.4596 106.813 14.6798 107.861 14.1183C108.92 13.5569 110.122 13.2761 111.466 13.2761C112.588 13.2761 113.563 13.4789 114.388 13.8844C115.225 14.2899 115.865 14.8566 116.31 15.5844C116.765 16.3123 116.993 17.1441 116.993 18.0799C116.993 19.3276 116.697 20.4506 116.104 21.4488C115.521 22.4469 114.701 23.2268 113.642 23.7882C112.594 24.3497 111.397 24.6305 110.053 24.6305ZM110.323 22.0726C111.021 22.0726 111.636 21.9011 112.165 21.5579C112.694 21.2148 113.102 20.7573 113.388 20.1854C113.674 19.6032 113.817 18.9637 113.817 18.267C113.817 17.5288 113.584 16.9413 113.118 16.5046C112.663 16.0575 112.022 15.834 111.196 15.834C110.497 15.834 109.883 16.0055 109.354 16.3487C108.825 16.6918 108.417 17.1545 108.131 17.7368C107.845 18.3086 107.702 18.9429 107.702 19.6395C107.702 20.3778 107.93 20.9705 108.385 21.4176C108.851 21.8543 109.497 22.0726 110.323 22.0726Z"/>
<path d="M122.896 24.6305C121.933 24.6305 121.102 24.4745 120.403 24.1626C119.704 23.8402 119.169 23.3827 118.799 22.7901C118.428 22.1974 118.243 21.5007 118.243 20.7001C118.243 20.3674 118.285 19.9827 118.37 19.546L119.609 13.4945H122.753L121.53 19.4992C121.467 19.8111 121.435 20.097 121.435 20.357C121.435 21.5007 122.049 22.0726 123.277 22.0726C123.944 22.0726 124.469 21.8751 124.85 21.4799C125.241 21.0744 125.533 20.4142 125.723 19.4992L126.946 13.4945H130.043L128.788 19.6863C128.111 22.9824 126.147 24.6305 122.896 24.6305Z"/>
<path d="M141.416 16.9725C141.416 17.9707 141.146 18.8337 140.606 19.5616C140.066 20.279 139.309 20.8041 138.335 21.1368L140.225 24.4121H136.938L135.286 21.5111H133.698L133.11 24.4121H129.966L132.189 13.4945H136.938C138.357 13.4945 139.458 13.8012 140.241 14.4147C141.025 15.0281 141.416 15.8808 141.416 16.9725ZM138.24 17.2689C138.24 16.8218 138.087 16.489 137.779 16.2707C137.472 16.0419 137.044 15.9275 136.493 15.9275H134.841L134.174 19.1249H136.048C136.747 19.1249 137.287 18.9637 137.668 18.6414C138.049 18.319 138.24 17.8615 138.24 17.2689Z"/>
<path d="M60.2817 34.7063C59.8987 34.7063 59.5507 34.6231 59.2376 34.4567C58.9283 34.2867 58.6852 34.0553 58.5085 33.7623C58.3354 33.4694 58.2488 33.1403 58.2488 32.775C58.2488 32.4097 58.3354 32.0806 58.5085 31.7877C58.6852 31.4947 58.9283 31.2651 59.2376 31.0987C59.5507 30.9287 59.8987 30.8437 60.2817 30.8437C60.6647 30.8437 61.009 30.9269 61.3147 31.0933C61.624 31.2596 61.8671 31.4911 62.0439 31.7877C62.2206 32.0806 62.309 32.4097 62.309 32.775C62.309 33.1403 62.2206 33.4712 62.0439 33.7678C61.8671 34.0607 61.624 34.2904 61.3147 34.4567C61.009 34.6231 60.6647 34.7063 60.2817 34.7063ZM60.2817 34.3482C60.5873 34.3482 60.8635 34.2813 61.1103 34.1475C61.357 34.0101 61.5504 33.822 61.6903 33.5833C61.8303 33.341 61.9002 33.0716 61.9002 32.775C61.9002 32.4784 61.8303 32.2108 61.6903 31.9721C61.5504 31.7298 61.357 31.5417 61.1103 31.4079C60.8635 31.2705 60.5873 31.2018 60.2817 31.2018C59.976 31.2018 59.698 31.2705 59.4475 31.4079C59.2008 31.5417 59.0056 31.7298 58.862 31.9721C58.7221 32.2108 58.6521 32.4784 58.6521 32.775C58.6521 33.0716 58.7221 33.341 58.862 33.5833C59.0056 33.822 59.2008 34.0101 59.4475 34.1475C59.698 34.2813 59.976 34.3482 60.2817 34.3482Z"/>
<path d="M64.6876 31.7985C64.9601 31.7985 65.2068 31.86 65.4278 31.983C65.6488 32.1023 65.8219 32.2723 65.9471 32.4929C66.0723 32.7135 66.1349 32.9649 66.1349 33.247C66.1349 33.5327 66.0723 33.7858 65.9471 34.0065C65.8219 34.2271 65.6488 34.3989 65.4278 34.5218C65.2105 34.6412 64.9638 34.7008 64.6876 34.7008C64.4519 34.7008 64.2383 34.6538 64.0468 34.5598C63.859 34.4622 63.7043 34.3211 63.5828 34.1367V35.7262H63.1906V31.8202H63.5662V32.3844C63.684 32.1963 63.8387 32.0517 64.0302 31.9504C64.2254 31.8492 64.4445 31.7985 64.6876 31.7985ZM64.66 34.3591C64.8625 34.3591 65.0466 34.3139 65.2124 34.2235C65.3781 34.1294 65.507 33.9974 65.5991 33.8274C65.6948 33.6575 65.7427 33.464 65.7427 33.247C65.7427 33.03 65.6948 32.8383 65.5991 32.6719C65.507 32.5019 65.3781 32.3699 65.2124 32.2759C65.0466 32.1819 64.8625 32.1349 64.66 32.1349C64.4537 32.1349 64.2678 32.1819 64.102 32.2759C63.94 32.3699 63.8111 32.5019 63.7154 32.6719C63.6233 32.8383 63.5772 33.03 63.5772 33.247C63.5772 33.464 63.6233 33.6575 63.7154 33.8274C63.8111 33.9974 63.94 34.1294 64.102 34.2235C64.2678 34.3139 64.4537 34.3591 64.66 34.3591Z"/>
<path d="M69.0325 32.162H67.3698V34.6737H66.9776V31.8202H69.0325V32.162Z"/>
<path d="M70.5992 31.7985C70.9785 31.7985 71.2694 31.8925 71.472 32.0806C71.6745 32.2651 71.7758 32.5399 71.7758 32.9052V34.6737H71.4002V34.2289C71.3118 34.3772 71.1811 34.4929 71.008 34.5761C70.8386 34.6593 70.636 34.7008 70.4003 34.7008C70.0762 34.7008 69.8185 34.6249 69.627 34.473C69.4355 34.3211 69.3397 34.1204 69.3397 33.8708C69.3397 33.6285 69.4281 33.4332 69.6049 33.2849C69.7853 33.1367 70.0707 33.0625 70.4611 33.0625H71.3836V32.8889C71.3836 32.643 71.3136 32.4567 71.1737 32.3302C71.0337 32.2 70.8294 32.1349 70.5605 32.1349C70.3764 32.1349 70.1996 32.1656 70.0302 32.2271C69.8608 32.285 69.7153 32.3663 69.5938 32.4712L69.417 32.1837C69.5643 32.0607 69.7411 31.9667 69.9473 31.9016C70.1536 31.8329 70.3709 31.7985 70.5992 31.7985ZM70.4611 34.3971C70.682 34.3971 70.8717 34.3482 71.0301 34.2506C71.1884 34.1493 71.3063 34.0047 71.3836 33.8166V33.35H70.4721C69.975 33.35 69.7264 33.52 69.7264 33.86C69.7264 34.0263 69.7908 34.1584 69.9197 34.256C70.0486 34.35 70.2291 34.3971 70.4611 34.3971Z"/>
<path d="M72.8199 31.8202H73.2121V33.0842H75.0406V31.8202H75.4328V34.6737H75.0406V33.4151H73.2121V34.6737H72.8199V31.8202Z"/>
<path d="M76.5476 31.8202H76.9398V34.0878L78.8787 31.8202H79.2267V34.6737H78.8345V32.4061L76.9011 34.6737H76.5476V31.8202Z"/>
<path d="M81.7056 33.1873C81.9118 33.2343 82.0701 33.3157 82.1806 33.4314C82.2948 33.5471 82.3519 33.6882 82.3519 33.8546C82.3519 34.0209 82.293 34.1692 82.1751 34.2994C82.0609 34.4296 81.9044 34.5309 81.7056 34.6032C81.5067 34.6719 81.2876 34.7063 81.0482 34.7063C80.8383 34.7063 80.632 34.6773 80.4295 34.6195C80.227 34.558 80.0502 34.4694 79.8992 34.3537L80.0318 34.0661C80.1643 34.1638 80.319 34.2397 80.4958 34.294C80.6726 34.3482 80.8512 34.3754 81.0316 34.3754C81.3005 34.3754 81.5196 34.3265 81.689 34.2289C81.8621 34.1276 81.9486 33.992 81.9486 33.822C81.9486 33.6701 81.8786 33.5526 81.7387 33.4694C81.5988 33.3826 81.4073 33.3392 81.1642 33.3392H80.667V33.0571H81.1421C81.3594 33.0571 81.5343 33.0173 81.6669 32.9377C81.7995 32.8546 81.8658 32.7443 81.8658 32.6068C81.8658 32.4549 81.7903 32.3356 81.6393 32.2488C81.492 32.162 81.2986 32.1186 81.0592 32.1186C80.7462 32.1186 80.4369 32.1963 80.1312 32.3519L80.0207 32.0535C80.3669 31.8763 80.726 31.7877 81.0979 31.7877C81.3189 31.7877 81.5177 31.8202 81.6945 31.8853C81.875 31.9468 82.0149 32.0354 82.1143 32.1511C82.2175 32.2669 82.269 32.4007 82.269 32.5526C82.269 32.6972 82.2175 32.8256 82.1143 32.9377C82.0149 33.0499 81.8786 33.133 81.7056 33.1873Z"/>
<path d="M84.2421 31.7985C84.6214 31.7985 84.9123 31.8925 85.1149 32.0806C85.3174 32.2651 85.4187 32.5399 85.4187 32.9052V34.6737H85.0431V34.2289C84.9547 34.3772 84.824 34.4929 84.6509 34.5761C84.4815 34.6593 84.2789 34.7008 84.0432 34.7008C83.7191 34.7008 83.4614 34.6249 83.2699 34.473C83.0784 34.3211 82.9826 34.1204 82.9826 33.8708C82.9826 33.6285 83.071 33.4332 83.2478 33.2849C83.4282 33.1367 83.7136 33.0625 84.104 33.0625H85.0265V32.8889C85.0265 32.643 84.9565 32.4567 84.8166 32.3302C84.6766 32.2 84.4723 32.1349 84.2034 32.1349C84.0193 32.1349 83.8425 32.1656 83.6731 32.2271C83.5037 32.285 83.3582 32.3663 83.2367 32.4712L83.0599 32.1837C83.2073 32.0607 83.384 31.9667 83.5902 31.9016C83.7965 31.8329 84.0138 31.7985 84.2421 31.7985ZM84.104 34.3971C84.325 34.3971 84.5146 34.3482 84.673 34.2506C84.8313 34.1493 84.9492 34.0047 85.0265 33.8166V33.35H84.115C83.6179 33.35 83.3693 33.52 83.3693 33.86C83.3693 34.0263 83.4337 34.1584 83.5626 34.256C83.6915 34.35 83.872 34.3971 84.104 34.3971Z"/>
<path d="M89.49 34.3374V35.3898H89.1199V34.6737H86.4628V31.8202H86.855V34.3374H88.6282V31.8202H89.0204V34.3374H89.49Z"/>
<path d="M90.239 31.8202H90.6312V34.0878L92.5702 31.8202H92.9182V34.6737H92.526V32.4061L90.5926 34.6737H90.239V31.8202Z"/>
<path d="M96.2739 31.8202V34.6737H95.9148V33.7298H94.8929L94.219 34.6737H93.7936L94.5173 33.6755C94.2926 33.6141 94.1195 33.5092 93.998 33.3609C93.8765 33.2126 93.8157 33.0245 93.8157 32.7967C93.8157 32.4784 93.9262 32.2361 94.1472 32.0698C94.3681 31.9034 94.6701 31.8202 95.0531 31.8202H96.2739ZM94.2134 32.8076C94.2134 33.2307 94.4878 33.4423 95.0365 33.4423H95.9148V32.162H95.0641C94.497 32.162 94.2134 32.3772 94.2134 32.8076Z"/>
<path d="M101.445 31.8202V34.6737H101.053V32.162H99.2302V34.6737H98.838V31.8202H101.445Z"/>
<path d="M103.759 34.7008C103.479 34.7008 103.227 34.6394 103.002 34.5164C102.778 34.3898 102.601 34.2162 102.472 33.9956C102.343 33.775 102.279 33.5254 102.279 33.247C102.279 32.9685 102.343 32.7189 102.472 32.4983C102.601 32.2777 102.778 32.1059 103.002 31.983C103.227 31.86 103.479 31.7985 103.759 31.7985C104.039 31.7985 104.291 31.86 104.516 31.983C104.74 32.1059 104.915 32.2777 105.041 32.4983C105.169 32.7189 105.234 32.9685 105.234 33.247C105.234 33.5254 105.169 33.775 105.041 33.9956C104.915 34.2162 104.74 34.3898 104.516 34.5164C104.291 34.6394 104.039 34.7008 103.759 34.7008ZM103.759 34.3591C103.965 34.3591 104.149 34.3139 104.311 34.2235C104.477 34.1294 104.606 33.9974 104.698 33.8274C104.79 33.6575 104.836 33.464 104.836 33.247C104.836 33.03 104.79 32.8365 104.698 32.6665C104.606 32.4965 104.477 32.3663 104.311 32.2759C104.149 32.1819 103.965 32.1349 103.759 32.1349C103.553 32.1349 103.367 32.1819 103.201 32.2759C103.039 32.3663 102.91 32.4965 102.814 32.6665C102.722 32.8365 102.676 33.03 102.676 33.247C102.676 33.464 102.722 33.6575 102.814 33.8274C102.91 33.9974 103.039 34.1294 103.201 34.2235C103.367 34.3139 103.553 34.3591 103.759 34.3591Z"/>
<path d="M107.787 34.6737L106.865 33.4802L105.936 34.6737H105.495L106.644 33.209L105.55 31.8202H105.992L106.865 32.9377L107.737 31.8202H108.168L107.074 33.209L108.234 34.6737H107.787Z"/>
<path d="M109.974 34.7008C109.694 34.7008 109.441 34.6394 109.217 34.5164C108.992 34.3898 108.815 34.2162 108.686 33.9956C108.558 33.775 108.493 33.5254 108.493 33.247C108.493 32.9685 108.558 32.7189 108.686 32.4983C108.815 32.2777 108.992 32.1059 109.217 31.983C109.441 31.86 109.694 31.7985 109.974 31.7985C110.253 31.7985 110.506 31.86 110.73 31.983C110.955 32.1059 111.13 32.2777 111.255 32.4983C111.384 32.7189 111.448 32.9685 111.448 33.247C111.448 33.5254 111.384 33.775 111.255 33.9956C111.13 34.2162 110.955 34.3898 110.73 34.5164C110.506 34.6394 110.253 34.7008 109.974 34.7008ZM109.974 34.3591C110.18 34.3591 110.364 34.3139 110.526 34.2235C110.692 34.1294 110.821 33.9974 110.913 33.8274C111.005 33.6575 111.051 33.464 111.051 33.247C111.051 33.03 111.005 32.8365 110.913 32.6665C110.821 32.4965 110.692 32.3663 110.526 32.2759C110.364 32.1819 110.18 32.1349 109.974 32.1349C109.767 32.1349 109.581 32.1819 109.416 32.2759C109.254 32.3663 109.125 32.4965 109.029 32.6665C108.937 32.8365 108.891 33.03 108.891 33.247C108.891 33.464 108.937 33.6575 109.029 33.8274C109.125 33.9974 109.254 34.1294 109.416 34.2235C109.581 34.3139 109.767 34.3591 109.974 34.3591Z"/>
<path d="M115.104 34.3374V35.3627H114.734V34.6737H112.132V35.3627H111.762V34.3374H111.928C112.123 34.3265 112.256 34.1855 112.326 33.9142C112.396 33.643 112.444 33.2632 112.469 32.775L112.508 31.8202H114.651V34.3374H115.104ZM112.828 32.7967C112.81 33.2018 112.775 33.5363 112.723 33.8003C112.672 34.0607 112.58 34.2397 112.447 34.3374H114.259V32.162H112.862L112.828 32.7967Z"/>
<path d="M117.067 34.7008C116.788 34.7008 116.535 34.6394 116.311 34.5164C116.086 34.3898 115.909 34.2162 115.78 33.9956C115.651 33.775 115.587 33.5254 115.587 33.247C115.587 32.9685 115.651 32.7189 115.78 32.4983C115.909 32.2777 116.086 32.1059 116.311 31.983C116.535 31.86 116.788 31.7985 117.067 31.7985C117.347 31.7985 117.6 31.86 117.824 31.983C118.049 32.1059 118.224 32.2777 118.349 32.4983C118.478 32.7189 118.542 32.9685 118.542 33.247C118.542 33.5254 118.478 33.775 118.349 33.9956C118.224 34.2162 118.049 34.3898 117.824 34.5164C117.6 34.6394 117.347 34.7008 117.067 34.7008ZM117.067 34.3591C117.274 34.3591 117.458 34.3139 117.62 34.2235C117.786 34.1294 117.914 33.9974 118.006 33.8274C118.099 33.6575 118.145 33.464 118.145 33.247C118.145 33.03 118.099 32.8365 118.006 32.6665C117.914 32.4965 117.786 32.3663 117.62 32.2759C117.458 32.1819 117.274 32.1349 117.067 32.1349C116.861 32.1349 116.675 32.1819 116.509 32.2759C116.347 32.3663 116.219 32.4965 116.123 32.6665C116.031 32.8365 115.985 33.03 115.985 33.247C115.985 33.464 116.031 33.6575 116.123 33.8274C116.219 33.9974 116.347 34.1294 116.509 34.2235C116.675 34.3139 116.861 34.3591 117.067 34.3591Z"/>
<path d="M121.231 33.1981C121.625 33.2886 121.822 33.5218 121.822 33.898C121.822 34.1475 121.728 34.3392 121.54 34.473C121.353 34.6068 121.073 34.6737 120.701 34.6737H119.381V31.8202H120.662C120.994 31.8202 121.253 31.8835 121.441 32.0101C121.629 32.1367 121.723 32.3175 121.723 32.5526C121.723 32.7081 121.679 32.8419 121.59 32.954C121.505 33.0625 121.386 33.1439 121.231 33.1981ZM119.762 33.0896H120.635C120.859 33.0896 121.03 33.0481 121.148 32.9649C121.27 32.8817 121.331 32.7605 121.331 32.6014C121.331 32.4423 121.27 32.3229 121.148 32.2434C121.03 32.1638 120.859 32.124 120.635 32.124H119.762V33.0896ZM120.684 34.3699C120.935 34.3699 121.122 34.3301 121.248 34.2506C121.373 34.171 121.436 34.0462 121.436 33.8763C121.436 33.7063 121.378 33.5815 121.264 33.5019C121.15 33.4188 120.97 33.3772 120.723 33.3772H119.762V34.3699H120.684Z"/>
<path d="M126.038 33.1981C126.432 33.2886 126.629 33.5218 126.629 33.898C126.629 34.1475 126.535 34.3392 126.347 34.473C126.159 34.6068 125.879 34.6737 125.507 34.6737H124.187V31.8202H125.469C125.8 31.8202 126.06 31.8835 126.248 32.0101C126.435 32.1367 126.529 32.3175 126.529 32.5526C126.529 32.7081 126.485 32.8419 126.397 32.954C126.312 33.0625 126.192 33.1439 126.038 33.1981ZM124.568 33.0896H125.441C125.666 33.0896 125.837 33.0481 125.955 32.9649C126.076 32.8817 126.137 32.7605 126.137 32.6014C126.137 32.4423 126.076 32.3229 125.955 32.2434C125.837 32.1638 125.666 32.124 125.441 32.124H124.568V33.0896ZM125.491 34.3699C125.741 34.3699 125.929 34.3301 126.054 34.2506C126.179 34.171 126.242 34.0462 126.242 33.8763C126.242 33.7063 126.185 33.5815 126.071 33.5019C125.957 33.4188 125.776 33.3772 125.529 33.3772H124.568V34.3699H125.491Z"/>
<path d="M131.049 32.162H129.386V34.6737H128.994V31.8202H131.049V32.162Z"/>
<path d="M132.679 34.7008C132.399 34.7008 132.147 34.6394 131.923 34.5164C131.698 34.3898 131.521 34.2162 131.392 33.9956C131.263 33.775 131.199 33.5254 131.199 33.247C131.199 32.9685 131.263 32.7189 131.392 32.4983C131.521 32.2777 131.698 32.1059 131.923 31.983C132.147 31.86 132.399 31.7985 132.679 31.7985C132.959 31.7985 133.211 31.86 133.436 31.983C133.661 32.1059 133.836 32.2777 133.961 32.4983C134.09 32.7189 134.154 32.9685 134.154 33.247C134.154 33.5254 134.09 33.775 133.961 33.9956C133.836 34.2162 133.661 34.3898 133.436 34.5164C133.211 34.6394 132.959 34.7008 132.679 34.7008ZM132.679 34.3591C132.886 34.3591 133.07 34.3139 133.232 34.2235C133.397 34.1294 133.526 33.9974 133.618 33.8274C133.71 33.6575 133.757 33.464 133.757 33.247C133.757 33.03 133.71 32.8365 133.618 32.6665C133.526 32.4965 133.397 32.3663 133.232 32.2759C133.07 32.1819 132.886 32.1349 132.679 32.1349C132.473 32.1349 132.287 32.1819 132.121 32.2759C131.959 32.3663 131.83 32.4965 131.735 32.6665C131.643 32.8365 131.597 33.03 131.597 33.247C131.597 33.464 131.643 33.6575 131.735 33.8274C131.83 33.9974 131.959 34.1294 132.121 34.2235C132.287 34.3139 132.473 34.3591 132.679 34.3591Z"/>
<path d="M136.49 31.7985C136.762 31.7985 137.009 31.86 137.23 31.983C137.451 32.1023 137.624 32.2723 137.749 32.4929C137.874 32.7135 137.937 32.9649 137.937 33.247C137.937 33.5327 137.874 33.7858 137.749 34.0065C137.624 34.2271 137.451 34.3989 137.23 34.5218C137.012 34.6412 136.766 34.7008 136.49 34.7008C136.254 34.7008 136.04 34.6538 135.849 34.5598C135.661 34.4622 135.506 34.3211 135.385 34.1367V35.7262H134.992V31.8202H135.368V32.3844C135.486 32.1963 135.641 32.0517 135.832 31.9504C136.027 31.8492 136.246 31.7985 136.49 31.7985ZM136.462 34.3591C136.664 34.3591 136.849 34.3139 137.014 34.2235C137.18 34.1294 137.309 33.9974 137.401 33.8274C137.497 33.6575 137.545 33.464 137.545 33.247C137.545 33.03 137.497 32.8383 137.401 32.6719C137.309 32.5019 137.18 32.3699 137.014 32.2759C136.849 32.1819 136.664 32.1349 136.462 32.1349C136.256 32.1349 136.07 32.1819 135.904 32.2759C135.742 32.3699 135.613 32.5019 135.517 32.6719C135.425 32.8383 135.379 33.03 135.379 33.247C135.379 33.464 135.425 33.6575 135.517 33.8274C135.613 33.9974 135.742 34.1294 135.904 34.2235C136.07 34.3139 136.256 34.3591 136.462 34.3591Z"/>
<path d="M140 32.8293C140.365 32.8329 140.643 32.9124 140.834 33.0679C141.026 33.2235 141.122 33.4477 141.122 33.7406C141.122 34.0444 141.019 34.2777 140.812 34.4404C140.606 34.6032 140.311 34.6828 139.928 34.6791L138.779 34.6737V31.8202H139.172V32.8184L140 32.8293ZM141.608 31.8202H142V34.6737H141.608V31.8202ZM139.906 34.3862C140.175 34.3898 140.378 34.3374 140.514 34.2289C140.654 34.1168 140.724 33.954 140.724 33.7406C140.724 33.5309 140.656 33.3754 140.52 33.2741C140.383 33.1728 140.179 33.1204 139.906 33.1168L139.172 33.1059V34.3754L139.906 34.3862Z"/>
</g></symbol><symbol id="map" viewBox="0 0 25 25"><g fill="none">
<g clip-path="url(#clip0_1743_422)">
<path d="M24.1704 22.2803V6.70123C24.1823 6.44571 23.9848 6.22897 23.7293 6.2171C23.6748 6.21456 23.6204 6.22168 23.5684 6.23812V6.26127L21.4844 6.91426C21.7026 6.33016 21.8321 5.71665 21.8688 5.09423C21.8688 2.28077 19.588 0 16.7745 0C13.9611 0 11.6803 2.28077 11.6803 5.09423C11.7128 5.68754 11.833 6.27279 12.0369 6.8309L8.59135 5.59902C8.55135 5.5941 8.51094 5.5941 8.47094 5.59902H8.43389C8.37837 5.60001 8.32344 5.61101 8.2718 5.63144L1.12598 8.41011C0.961171 8.47281 0.846262 8.62361 0.82959 8.79913V24.3967C0.830342 24.6525 1.03828 24.8592 1.29409 24.8585C1.35065 24.8583 1.40669 24.8478 1.45942 24.8274L8.44315 22.1229L16.4087 24.9756C16.5048 25.0081 16.6089 25.0081 16.7051 24.9756L23.8463 22.7434C24.0469 22.6806 24.18 22.4904 24.1704 22.2803ZM16.7745 0.926224C19.0765 0.926224 20.9425 2.79228 20.9425 5.09423C20.9425 6.905 18.2241 11.9066 16.7745 14.3565C15.325 11.8881 12.6065 6.88184 12.6065 5.09423C12.6065 2.79228 14.4726 0.926224 16.7745 0.926224ZM23.2581 21.9608L17.0246 23.9105V20.3769C17.0246 20.1212 16.8173 19.9138 16.5615 19.9138C16.3058 19.9138 16.0984 20.1212 16.0984 20.3769V23.8781L8.90163 21.3032V18.3392C8.90163 18.0835 8.69427 17.8761 8.43852 17.8761C8.18277 17.8761 7.97541 18.0835 7.97541 18.3392V21.3032L1.75581 23.7252V16.5655L4.04359 15.6393C4.2884 15.5652 4.42675 15.3067 4.35266 15.0618C4.27856 14.817 4.02003 14.6787 3.77521 14.7528C3.74963 14.7605 3.72473 14.7705 3.70083 14.7825L1.75576 15.5652V9.11868L7.97535 6.71049V8.09983C7.97535 8.35558 8.18271 8.56294 8.43846 8.56294C8.69421 8.56294 8.90157 8.35558 8.90157 8.09983V6.69197L12.4536 7.96553C13.5928 10.5687 14.9032 13.0936 16.3762 15.5235C16.5088 15.7422 16.7936 15.8119 17.0123 15.6793C17.076 15.6407 17.1295 15.5872 17.1681 15.5235C18.6339 13.1079 19.9396 10.5985 21.0768 8.01184L23.2442 7.33106L23.258 14.9215L20.9101 15.4911C20.6543 15.5218 20.4718 15.754 20.5025 16.0098C20.5332 16.2655 20.7655 16.448 21.0212 16.4173C21.0581 16.4218 21.0954 16.4218 21.1324 16.4173L23.258 15.8986L23.2581 21.9608Z" fill="#2D383F"/>
<path d="M16.756 2.40353C15.2699 2.40353 14.0653 3.6082 14.0653 5.09421C14.0653 6.58022 15.2699 7.78489 16.756 7.78489C18.2409 7.78235 19.4441 6.57918 19.4466 5.09421C19.4466 3.6082 18.242 2.40353 16.756 2.40353ZM16.756 6.85867C15.7898 6.84605 15.0125 6.0605 15.01 5.09421H14.9915C14.9915 4.11971 15.7815 3.32976 16.756 3.32976C17.7305 3.32976 18.5204 4.11971 18.5204 5.09421C18.5204 6.06872 17.7305 6.85867 16.756 6.85867Z" fill="#2D383F"/>
<path d="M10.6985 13.9674V13.9813L8.45704 13.0134C8.34294 12.9659 8.21454 12.9659 8.10044 13.0134L6.20631 13.7776C5.96845 13.8735 5.85336 14.1441 5.94929 14.3819C6.04521 14.6198 6.31578 14.7349 6.55365 14.639L8.26716 13.9489L10.328 14.8196C10.3865 14.8445 10.4496 14.8571 10.5133 14.8566C10.769 14.8587 10.978 14.6531 10.9801 14.3973C10.9816 14.2103 10.8705 14.0407 10.6985 13.9674Z" fill="#2D383F"/>
<path d="M18.2702 16.616C18.2012 16.3929 17.9769 16.2561 17.747 16.2969L17.7516 16.2598L16.6031 16.5377L14.658 15.6948C14.4227 15.5925 14.149 15.7003 14.0467 15.9356C13.9444 16.171 14.0522 16.4447 14.2875 16.5469L16.3715 17.4732C16.4301 17.4981 16.4932 17.5107 16.5568 17.5102H16.6679L17.9646 17.1953C18.209 17.1197 18.3458 16.8604 18.2702 16.616Z" fill="#2D383F"/>
</g>

</g></symbol><symbol id="mountain" viewBox="0 0 25 25"><g fill="none">
<g clip-path="url(#clip0_1743_1042)">
<path d="M23.4153 24.1883L15.5583 5.90781C15.4551 5.66541 15.1749 5.55265 14.9325 5.65587C14.8192 5.70417 14.7289 5.79445 14.6806 5.90781L9.93871 16.9181L7.00963 10.1583C6.90634 9.91592 6.62614 9.80316 6.3838 9.90638C6.27044 9.95468 6.18016 10.045 6.13186 10.1583L3.37928 16.5174L0.0399368 24.1836C-0.0654315 24.425 0.0448861 24.7062 0.286333 24.8116C0.347037 24.8381 0.412572 24.8517 0.478822 24.8514H22.9765C23.2399 24.8512 23.4533 24.6375 23.4531 24.374C23.4531 24.3102 23.4402 24.2471 23.4153 24.1883ZM15.1147 7.29603L18.2107 14.4947H17.1231L15.1576 12.3241C14.9804 12.1291 14.6787 12.1148 14.4837 12.292C14.4531 12.3198 14.4263 12.3514 14.4039 12.3861L13.6692 13.5215H12.4384L15.1147 7.29603ZM6.57074 11.5322L9.018 17.19H7.68226C7.52007 17.1903 7.36914 17.273 7.28154 17.4095L6.80449 18.168L5.57371 16.4315C5.48474 16.3032 5.33864 16.2266 5.18253 16.2264H4.54805L6.57074 11.5322ZM1.22779 23.8973L4.13302 17.1805H4.93446L6.42285 19.3034C6.51182 19.4316 6.65792 19.5082 6.81403 19.5085C6.97283 19.505 7.11947 19.4227 7.20522 19.289L7.93987 18.1537H9.42826L11.9137 23.8783L1.22779 23.8973ZM12.9584 23.8973L10.4587 18.125L12.0282 14.4756H13.9364C14.0986 14.4753 14.2495 14.3927 14.3371 14.2562L14.8666 13.4404L16.5554 15.3057C16.6455 15.4056 16.7738 15.4628 16.9084 15.4631H18.6162L22.2466 23.9116L12.9584 23.8973Z" fill="#2D383F"/>
<path d="M7.61068 2.08188C7.16065 0.922592 5.85598 0.347688 4.69675 0.797784C3.83359 1.13285 3.26357 1.9622 3.26 2.88809C3.25529 2.97074 3.25529 3.05351 3.26 3.13616C2.13213 3.65996 1.6425 4.99892 2.1663 6.12678C2.52904 6.90777 3.30543 7.4135 4.16639 7.4296L4.19024 7.44869H7.52959C9.0116 7.47111 10.2311 6.28785 10.2535 4.80583C10.2759 3.32382 9.0927 2.1043 7.61068 2.08188ZM7.55821 6.5089H4.21886C3.50484 6.58266 2.86625 6.06369 2.79249 5.34967C2.71872 4.63564 3.23769 3.99706 3.95172 3.92329C4.20998 3.87123 4.37719 3.61971 4.32513 3.36139C4.32113 3.34165 4.31594 3.32215 4.3095 3.30313C4.26293 3.16967 4.23878 3.02942 4.23795 2.88809C4.23389 2.17145 4.81148 1.58724 5.52813 1.58313C6.16207 1.57949 6.70578 2.03447 6.81401 2.65911C6.85784 2.90992 7.09094 3.08207 7.34354 3.05029C7.41504 3.04558 7.48671 3.04558 7.55821 3.05029C8.51326 3.05029 9.28751 3.82454 9.28751 4.77959C9.28751 5.73465 8.51326 6.5089 7.55821 6.5089Z" fill="#2D383F"/>
<path d="M23.6967 2.63997C23.7014 2.55733 23.7014 2.47456 23.6967 2.39191C23.6919 1.14836 22.6799 0.144172 21.4363 0.148943C20.5172 0.152521 19.6938 0.714604 19.354 1.56727C17.8795 1.59816 16.7047 2.81392 16.727 4.29057C16.7494 5.77258 17.9689 6.95584 19.451 6.93342H22.7903C24.0337 6.91016 25.0228 5.88343 24.9995 4.64006C24.9834 3.77911 24.4777 3.00271 23.6967 2.63997ZM24.056 4.94758C23.9297 5.54008 23.4103 5.96632 22.8046 5.97455H19.4653C18.5102 5.97455 17.736 5.2003 17.736 4.24525C17.736 3.29019 18.5102 2.51594 19.4653 2.51594C19.5368 2.51123 19.6084 2.51123 19.6799 2.51594C19.9213 2.54099 20.143 2.38088 20.1952 2.14384C20.3147 1.43727 20.9844 0.961417 21.6911 1.08098C22.3976 1.20054 22.8735 1.87026 22.7539 2.57688C22.7418 2.64862 22.7236 2.71922 22.6997 2.78792C22.6154 3.03754 22.7495 3.3082 22.9992 3.39246C23.0183 3.3989 23.0377 3.40415 23.0574 3.40808C23.7584 3.5574 24.2054 4.24668 24.056 4.94758Z" fill="#2D383F"/>
</g>

</g></symbol><symbol id="path-adv" viewBox="0 0 24 24"><g fill="none">
<g clip-path="url(#clip0_2309_160)">
<path d="M19.7921 9.56438H13.948C12.119 9.56438 10.6363 11.058 10.6363 12.9005C10.6363 14.743 12.119 16.2367 13.948 16.2367H16.4804C18.3094 16.2367 19.7921 17.7303 19.7921 19.5728C19.7921 21.4154 18.3094 22.909 16.4804 22.909H4.2077M7.32459 17.3783C7.32459 15.6442 5.92911 14.2384 4.2077 14.2384C2.4863 14.2384 1.09082 15.6442 1.09082 17.3783V17.4963C1.09082 18.1849 1.30737 18.8557 1.70938 19.4126L4.20155 22.8646C4.20459 22.8688 4.21082 22.8688 4.21386 22.8646L6.70603 19.4126C7.10804 18.8557 7.32459 18.1849 7.32459 17.4963V17.3783ZM4.81024 16.0858L4.82895 16.0947C5.20619 16.2744 5.48122 16.618 5.57568 17.0275C5.67119 17.4415 5.56854 17.8804 5.30257 18.2104C5.03952 18.5367 4.64156 18.7298 4.22426 18.7298H4.19115C3.77384 18.7298 3.37588 18.5367 3.11284 18.2104C2.84686 17.8804 2.74421 17.4415 2.83972 17.0275C2.93419 16.618 3.20922 16.2744 3.58646 16.0947L3.60516 16.0858C3.9866 15.904 4.42881 15.904 4.81024 16.0858ZM22.909 4.2528C22.909 2.51868 21.5135 1.09082 19.7921 1.09082C18.0707 1.09082 16.6752 2.51868 16.6752 4.2528C16.6752 4.93451 16.8934 5.60544 17.2974 6.15233L19.786 9.52099C19.789 9.52515 19.7952 9.52515 19.7983 9.52099L22.2868 6.15233C22.6908 5.60544 22.909 4.93451 22.909 4.2528ZM20.3862 2.8923L20.4285 2.912C20.796 3.08312 21.0652 3.41466 21.1589 3.81144C21.255 4.2184 21.1553 4.64717 20.89 4.96891L20.8767 4.98505C20.618 5.29873 20.2341 5.48019 19.8293 5.48019H19.755C19.3501 5.48019 18.9663 5.29873 18.7076 4.98505L18.6943 4.96891C18.4289 4.64717 18.3293 4.2184 18.4253 3.81144C18.519 3.41466 18.7882 3.08312 19.1557 2.912L19.198 2.8923C19.5749 2.7168 20.0093 2.7168 20.3862 2.8923Z" stroke="#0266C1" stroke-linecap="round"/>
</g>

</g></symbol><symbol id="pine-tree" viewBox="0 0 26 25"><g fill="none">
<g clip-path="url(#clip0_1743_888)">
<path d="M25.2588 18.0832L20.3519 12.4696H22.7226C22.9994 12.4689 23.2233 12.244 23.2227 11.9672C23.2224 11.857 23.1858 11.7499 23.1186 11.6626L19.179 6.48504H21.1839C21.4607 6.48466 21.6848 6.25999 21.6845 5.98319C21.6844 5.86165 21.64 5.7443 21.5598 5.65302L16.7381 0.169703C16.555 -0.0379264 16.2383 -0.0577872 16.0306 0.125345C16.0149 0.139191 16.0001 0.15404 15.9863 0.169703L11.1596 5.648C10.9741 5.8535 10.9903 6.17046 11.1958 6.35591C11.2889 6.43993 11.41 6.48598 11.5355 6.48504H13.5654L12.3525 8.06888L9.10457 4.37491C8.9215 4.16728 8.60473 4.14742 8.3971 4.33055C8.38138 4.3444 8.36659 4.35925 8.35275 4.37491L4.22773 9.06129C4.04504 9.26923 4.06553 9.58594 4.27347 9.76863C4.36475 9.84883 4.4821 9.89312 4.60364 9.89331H6.1925L2.89449 14.2088C2.73116 14.4323 2.77984 14.7458 3.00332 14.9092C3.08677 14.9703 3.18708 15.004 3.29046 15.0057H5.14496L1.07007 19.6921C0.890129 19.9024 0.914751 20.2188 1.12514 20.3988C1.2146 20.4754 1.32825 20.518 1.44598 20.5191H6.98944V24.0276C6.98944 24.5646 7.42481 25 7.9618 25H9.49051C10.0275 25.0027 10.4651 24.5697 10.4679 24.0326C10.4679 24.0309 10.4679 24.0293 10.4679 24.0276V20.5191H14.628V24.0276C14.628 24.5646 15.0634 25 15.6003 25H17.1291C17.666 25 18.1014 24.5646 18.1014 24.0276V18.9152H24.8829C25.1597 18.9148 25.3838 18.6902 25.3835 18.4134C25.3833 18.2918 25.339 18.1745 25.2588 18.0832ZM9.46545 23.9976L7.99187 24.0276L7.9618 20.5191H9.46545V23.9976ZM14.628 19.5167H2.54866L6.64861 14.8403C6.83418 14.6349 6.81808 14.318 6.61271 14.1324C6.51698 14.046 6.39161 13.9997 6.26267 14.0033H4.30793L7.60593 9.68781C7.77478 9.46847 7.73387 9.15376 7.51452 8.98492C7.42719 8.91769 7.32018 8.8811 7.20997 8.88085H5.70632L8.71362 5.45754L11.7209 8.87083L9.60579 11.6676C9.43694 11.887 9.47785 12.2017 9.6972 12.3705C9.78454 12.4377 9.89154 12.4743 10.0017 12.4746H12.3775L7.4706 18.0882C7.28791 18.2962 7.3084 18.6129 7.51634 18.7955C7.60762 18.8757 7.72497 18.92 7.84652 18.9202H14.628V19.5167ZM17.099 23.9875L15.6304 24.0276L15.6003 18.9152H17.104L17.099 23.9875ZM17.1291 17.9128H8.94919L13.8561 12.2992C14.0388 12.0912 14.0183 11.7745 13.8104 11.5918C13.7191 11.5116 13.6017 11.4673 13.4802 11.4671H11.0192L14.9788 6.28455C15.1449 6.06314 15.1001 5.74894 14.8787 5.58285C14.7933 5.51881 14.6896 5.48367 14.5829 5.4826H12.6632L16.3822 1.26236L20.0812 5.4826H18.1465C17.8697 5.48329 17.6459 5.70821 17.6465 5.98501C17.6467 6.09521 17.6833 6.20222 17.7506 6.28956L21.6851 11.4671H19.2442C18.9674 11.4675 18.7433 11.6922 18.7436 11.969C18.7437 12.0905 18.7881 12.2079 18.8683 12.2992L23.7752 17.9128H17.1291Z" fill="#2D383F"/>
</g>

</g></symbol><symbol id="safety-adv" viewBox="0 0 24 24"><g fill="none">
<path d="M9.54529 11.9039L11.9999 14.3521L16.2953 10.0677M11.9998 1.09082C9.46749 2.38571 6.64626 3.07423 3.76239 3.07423C3.37305 3.07423 2.98484 3.06168 2.59834 3.03679C2.09942 5.31296 2.04422 7.68139 2.45598 10.0106C3.1931 14.1803 5.37955 17.9575 8.63134 20.6791C9.67395 21.5517 10.8047 22.2979 11.9998 22.909C13.1949 22.2979 14.3257 21.5517 15.3683 20.6791C18.6201 17.9575 20.8065 14.1802 21.5437 10.0106C21.9554 7.68139 21.9002 5.31296 21.4013 3.03678C21.0148 3.06168 20.6266 3.07423 20.2372 3.07423C17.3533 3.07423 14.5321 2.38571 11.9998 1.09082Z" stroke="#0266C1"/>
</g></symbol><symbol id="star-fill" viewBox="0 0 16 16"><g fill="none">
<path d="M7.63441 11.6911L12.3525 14.3L11.1042 9.37971L15.2688 6.0708L9.77893 5.63889L7.63441 1L5.48992 5.63889L0 6.0708L4.16458 9.37971L2.91634 14.3L7.63441 11.6911Z" fill="white"/>
</g></symbol><symbol id="star-stroke" viewBox="0 0 16 16"><g fill="none">
<path fill-rule="evenodd" clip-rule="evenodd" d="M7.63441 10.5484L10.8153 12.3073L9.97596 8.99895L12.6574 6.86844L9.11688 6.58989L7.63441 3.38311L6.15197 6.58989L2.61141 6.86844L5.29286 8.99895L4.45356 12.3073L7.63441 10.5484ZM2.91634 14.3L4.16458 9.37971L0 6.0708L5.48992 5.63889L7.63441 1L9.77893 5.63889L15.2688 6.0708L11.1042 9.37971L12.3525 14.3L7.63441 11.6911L2.91634 14.3Z" fill="white"/>
</g></symbol><symbol id="vk" viewBox="0 0 14 8"><g fill="none">
<path d="M13.9258 7.22585C13.9088 7.18926 13.893 7.15891 13.8783 7.13459C13.6354 6.69645 13.1712 6.15865 12.4861 5.52106L12.4716 5.50646L12.4643 5.4993L12.457 5.49196H12.4497C12.1387 5.19506 11.9418 4.99543 11.8593 4.89323C11.7084 4.69854 11.6746 4.50147 11.7571 4.30179C11.8154 4.15092 12.0342 3.83232 12.4131 3.34554C12.6125 3.08756 12.7703 2.8808 12.8869 2.72502C13.7276 1.60555 14.0921 0.8902 13.9803 0.578677L13.9369 0.505878C13.9077 0.462051 13.8324 0.421956 13.711 0.385391C13.5894 0.348902 13.434 0.342868 13.2444 0.367185L11.1452 0.381709C11.1111 0.369639 11.0626 0.370764 10.9993 0.385391C10.9361 0.400017 10.9045 0.407356 10.9045 0.407356L10.868 0.425639L10.839 0.447603C10.8147 0.462127 10.788 0.487672 10.7588 0.524187C10.7297 0.560573 10.7055 0.603275 10.6861 0.651935C10.4575 1.24084 10.1977 1.78838 9.90602 2.29452C9.7262 2.59633 9.56107 2.85789 9.41026 3.07935C9.25966 3.30074 9.1333 3.46385 9.03133 3.56841C8.92921 3.67307 8.83705 3.75691 8.75428 3.82025C8.67163 3.88361 8.60855 3.91038 8.56486 3.90059C8.52108 3.8908 8.47985 3.88108 8.44081 3.87136C8.37282 3.82754 8.31813 3.76793 8.2769 3.6925C8.23549 3.61707 8.20761 3.52212 8.19303 3.40775C8.17853 3.2933 8.16995 3.19485 8.1675 3.11208C8.16523 3.02941 8.16628 2.91248 8.17121 2.76161C8.17626 2.61067 8.17853 2.50854 8.17853 2.455C8.17853 2.27002 8.18213 2.06927 8.18936 1.85269C8.19671 1.63611 8.20266 1.46451 8.20764 1.33809C8.21259 1.21154 8.21489 1.07766 8.21489 0.936508C8.21489 0.79536 8.20631 0.684665 8.18936 0.604324C8.17261 0.524084 8.1469 0.446197 8.11302 0.370688C8.07894 0.295256 8.02905 0.236904 7.96359 0.19548C7.898 0.154108 7.81646 0.121275 7.71941 0.0968811C7.46183 0.0385041 7.13384 0.00692482 6.73528 0.00201533C5.83147 -0.00770139 5.25072 0.0507522 4.99317 0.1773C4.89112 0.230767 4.79878 0.303821 4.71621 0.396232C4.62872 0.503346 4.61651 0.5618 4.67968 0.571415C4.97129 0.615166 5.17773 0.719825 5.29923 0.88529L5.34302 0.972971C5.37707 1.03623 5.41108 1.14823 5.44511 1.30881C5.47909 1.46939 5.50103 1.64703 5.51068 1.84162C5.53493 2.19697 5.53493 2.50115 5.51068 2.7542C5.48635 3.00734 5.46337 3.20441 5.44144 3.34556C5.41951 3.48671 5.38672 3.60109 5.34302 3.68866C5.29923 3.77627 5.2701 3.82981 5.2555 3.84925C5.24092 3.86868 5.22877 3.88093 5.21912 3.88573C5.15595 3.90998 5.09026 3.92233 5.02227 3.92233C4.95418 3.92233 4.87162 3.88822 4.77445 3.82004C4.6773 3.75187 4.57648 3.65824 4.47198 3.53898C4.36749 3.41969 4.24964 3.253 4.11838 3.03887C3.98723 2.82475 3.85115 2.57168 3.71023 2.27966L3.59363 2.06789C3.52074 1.93165 3.42117 1.73328 3.29481 1.47295C3.16839 1.21251 3.05664 0.960595 2.95949 0.717242C2.92066 0.615038 2.86232 0.537227 2.78458 0.483683L2.7481 0.461718C2.72385 0.442285 2.68491 0.421649 2.6315 0.399659C2.57801 0.377694 2.5222 0.361943 2.46384 0.352251L0.466599 0.366776C0.262507 0.366776 0.124028 0.413083 0.0511125 0.505571L0.0219309 0.549322C0.00735285 0.57369 0 0.612608 0 0.666178C0 0.719722 0.014578 0.785438 0.0437596 0.863249C0.33532 1.54956 0.652386 2.21144 0.994957 2.84901C1.33753 3.48658 1.63522 4.00016 1.88784 4.38929C2.14052 4.7787 2.39807 5.14622 2.6605 5.49168C2.92293 5.83726 3.09665 6.05872 3.18164 6.15602C3.26673 6.25349 3.33357 6.32637 3.38216 6.37503L3.56442 6.55021C3.68104 6.66704 3.8523 6.80696 4.07828 6.96997C4.3043 7.13309 4.55453 7.29367 4.82908 7.45197C5.10369 7.61002 5.42316 7.739 5.78766 7.83875C6.15211 7.9386 6.50683 7.97867 6.85188 7.95934H7.69016C7.86017 7.94464 7.98897 7.89109 8.07651 7.79868L8.10552 7.76209C8.12502 7.73304 8.14328 7.68791 8.16013 7.62718C8.17718 7.56635 8.18566 7.49933 8.18566 7.42643C8.18068 7.21719 8.19658 7.02861 8.23294 6.86071C8.26927 6.69287 8.31068 6.56632 8.35699 6.48109C8.40328 6.39595 8.45552 6.32409 8.51365 6.26584C8.57191 6.20747 8.61342 6.1721 8.63778 6.15993C8.66198 6.14768 8.68131 6.13937 8.69589 6.13439C8.81251 6.09547 8.94976 6.13316 9.10785 6.24764C9.26581 6.36201 9.41396 6.50324 9.55254 6.67108C9.69105 6.83908 9.85746 7.02756 10.0518 7.2368C10.2463 7.44612 10.4163 7.60171 10.562 7.70407L10.7078 7.79167C10.8051 7.85013 10.9314 7.90367 11.087 7.95233C11.2422 8.00097 11.3782 8.01314 11.495 7.98882L13.361 7.95967C13.5456 7.95967 13.6892 7.92906 13.7911 7.86833C13.8931 7.8075 13.9538 7.74048 13.9733 7.66758C13.9928 7.5946 13.9939 7.51181 13.977 7.41924C13.9597 7.32691 13.9427 7.26234 13.9258 7.22585Z" fill="currentColor"/>
</g></symbol></svg>