<svg width="48" height="48" viewBox="0 0 48 48" fill="none" xmlns="http://www.w3.org/2000/svg">
<path fill-rule="evenodd" clip-rule="evenodd" d="M23.9999 2.18164C33.0373 2.18164 40.3635 9.16338 40.3635 17.7758V18.7151C40.3635 22.161 39.2337 25.5208 37.1319 28.3249L24.0322 45.8021C24.0164 45.8233 23.9834 45.8233 23.9675 45.8021L10.8678 28.3249C8.76607 25.5209 7.63623 22.161 7.63623 18.7151V17.7758C7.63623 9.16338 14.9625 2.18164 23.9999 2.18164ZM21.0922 12.5764C19.2548 13.4137 17.9203 14.9972 17.4665 16.8786C17.0127 18.7599 17.4889 20.7345 18.7605 22.2432C20.032 23.752 21.9605 24.6307 23.9999 24.6307C26.0393 24.6307 27.9677 23.752 29.2393 22.2432C30.5108 20.7345 30.9871 18.7599 30.5333 16.8786C30.0795 14.9972 28.7449 13.4137 26.9075 12.5764C25.0701 11.7391 22.9297 11.7391 21.0922 12.5764Z" fill="#0266C1"/>
</svg>
